<svg xmlns="http://www.w3.org/2000/svg" xmlns:xlink="http://www.w3.org/1999/xlink" width="500" zoomAndPan="magnify" viewBox="0 0 375 374.999991" height="500" preserveAspectRatio="xMidYMid meet" version="1.0"><defs><g/><clipPath id="id1"><path d="M 127 133 L 248.664062 133 L 248.664062 244.832031 L 127 244.832031 Z M 127 133 " clip-rule="nonzero"/></clipPath><clipPath id="id2"><path d="M 157 233 L 175 233 L 175 244.832031 L 157 244.832031 Z M 157 233 " clip-rule="nonzero"/></clipPath><clipPath id="id3"><path d="M 200 233 L 218 233 L 218 244.832031 L 200 244.832031 Z M 200 233 " clip-rule="nonzero"/></clipPath></defs><path fill="#5a78bb" d="M 199.324219 121.484375 C 196.046875 121.472656 192.816406 121.851562 189.632812 122.621094 C 186.449219 123.390625 183.402344 124.527344 180.492188 126.03125 C 182.652344 125.582031 184.832031 125.300781 187.035156 125.1875 C 189.242188 125.074219 191.441406 125.125 193.636719 125.34375 C 195.832031 125.5625 197.996094 125.945312 200.132812 126.492188 C 202.273438 127.042969 204.355469 127.746094 206.386719 128.613281 C 208.414062 129.476562 210.371094 130.488281 212.246094 131.652344 C 214.121094 132.8125 215.902344 134.109375 217.582031 135.539062 C 219.261719 136.972656 220.824219 138.519531 222.269531 140.191406 C 223.714844 141.859375 225.023438 143.625 226.199219 145.492188 C 227.378906 147.363281 228.40625 149.308594 229.289062 151.332031 C 230.167969 153.355469 230.894531 155.433594 231.460938 157.570312 C 232.027344 159.703125 232.429688 161.867188 232.667969 164.0625 C 232.902344 166.257812 232.976562 168.457031 232.878906 170.664062 C 232.785156 172.871094 232.523438 175.054688 232.09375 177.222656 C 231.667969 179.386719 231.078125 181.507812 230.328125 183.585938 C 229.582031 185.664062 228.679688 187.671875 227.625 189.609375 C 226.570312 191.550781 225.378906 193.398438 224.042969 195.15625 C 225.738281 193.867188 227.324219 192.457031 228.800781 190.917969 C 230.273438 189.382812 231.621094 187.742188 232.839844 185.996094 C 234.058594 184.25 235.136719 182.417969 236.070312 180.503906 C 237.003906 178.589844 237.785156 176.613281 238.410156 174.574219 C 239.039062 172.539062 239.503906 170.46875 239.804688 168.359375 C 240.109375 166.25 240.246094 164.128906 240.21875 162 C 240.191406 159.867188 240 157.753906 239.644531 155.652344 C 239.289062 153.550781 238.769531 151.492188 238.09375 149.472656 C 237.414062 147.453125 236.585938 145.496094 235.601562 143.605469 C 234.621094 141.714844 233.496094 139.914062 232.234375 138.199219 C 230.972656 136.484375 229.582031 134.875 228.070312 133.378906 C 226.554688 131.878906 224.933594 130.507812 223.207031 129.261719 C 221.480469 128.015625 219.667969 126.910156 217.765625 125.949219 C 215.867188 124.988281 213.90625 124.175781 211.878906 123.519531 C 209.851562 122.863281 207.789062 122.367188 205.6875 122.035156 C 203.582031 121.699219 201.46875 121.53125 199.339844 121.527344 Z M 199.324219 121.484375 " fill-opacity="1" fill-rule="nonzero"/><path fill="#5a78bb" d="M 246.101562 162.25 C 246.101562 162.335938 246.101562 162.40625 246.101562 162.476562 C 246.105469 164.070312 246.027344 165.660156 245.867188 167.246094 C 245.707031 168.832031 245.464844 170.402344 245.144531 171.964844 C 244.824219 173.523438 244.425781 175.066406 243.949219 176.585938 C 243.472656 178.105469 242.917969 179.597656 242.289062 181.0625 C 241.660156 182.523438 240.957031 183.953125 240.183594 185.34375 C 239.40625 186.734375 238.566406 188.085938 237.652344 189.390625 C 236.742188 190.695312 235.765625 191.953125 234.722656 193.160156 C 233.683594 194.367188 232.585938 195.515625 231.425781 196.609375 C 230.269531 197.703125 229.058594 198.738281 227.796875 199.707031 C 226.535156 200.679688 225.226562 201.582031 223.871094 202.417969 C 222.515625 203.257812 221.125 204.023438 219.691406 204.71875 C 218.257812 205.414062 216.792969 206.035156 215.296875 206.578125 C 213.800781 207.125 212.28125 207.59375 210.738281 207.984375 C 209.195312 208.375 207.636719 208.683594 206.058594 208.917969 C 204.484375 209.148438 202.902344 209.300781 201.3125 209.367188 C 199.71875 209.4375 198.128906 209.425781 196.539062 209.335938 C 194.953125 209.242188 193.371094 209.070312 191.800781 208.816406 C 190.226562 208.5625 188.671875 208.230469 187.132812 207.816406 C 185.597656 207.40625 184.082031 206.917969 182.59375 206.351562 C 181.105469 205.785156 179.652344 205.144531 178.226562 204.429688 C 176.804688 203.710938 175.421875 202.925781 174.078125 202.070312 C 172.738281 201.214844 171.441406 200.292969 170.191406 199.304688 C 168.941406 198.316406 167.746094 197.265625 166.605469 196.15625 C 165.464844 195.046875 164.382812 193.878906 163.359375 192.660156 C 162.335938 191.4375 161.375 190.167969 160.484375 188.851562 C 159.589844 187.53125 158.765625 186.171875 158.007812 184.769531 C 157.253906 183.367188 156.570312 181.929688 155.964844 180.457031 C 155.355469 178.984375 154.820312 177.484375 154.367188 175.957031 C 153.910156 174.433594 153.53125 172.886719 153.234375 171.320312 C 152.9375 169.753906 152.71875 168.179688 152.578125 166.59375 C 152.441406 165.003906 152.382812 163.414062 152.410156 161.820312 C 152.433594 160.226562 152.539062 158.640625 152.722656 157.058594 C 152.910156 155.476562 153.175781 153.90625 153.519531 152.351562 C 153.867188 150.796875 154.289062 149.261719 154.792969 147.75 C 155.292969 146.238281 155.871094 144.753906 156.523438 143.300781 C 157.179688 141.847656 157.902344 140.433594 158.699219 139.054688 C 159.496094 137.675781 160.363281 136.339844 161.296875 135.050781 C 162.230469 133.757812 163.226562 132.519531 164.285156 131.328125 C 165.347656 130.140625 166.464844 129.007812 167.636719 127.933594 C 168.8125 126.855469 170.039062 125.84375 171.316406 124.894531 C 172.597656 123.945312 173.917969 123.0625 175.289062 122.246094 C 176.65625 121.433594 178.0625 120.6875 179.503906 120.015625 C 180.949219 119.34375 182.421875 118.75 183.929688 118.226562 C 185.433594 117.707031 186.960938 117.261719 188.507812 116.898438 C 190.058594 116.53125 191.625 116.246094 193.203125 116.039062 C 194.78125 115.835938 196.367188 115.710938 197.957031 115.667969 C 199.550781 115.621094 201.140625 115.660156 202.726562 115.777344 C 204.316406 115.894531 205.894531 116.09375 207.460938 116.375 C 206.5 116.046875 205.527344 115.746094 204.550781 115.46875 C 203.574219 115.195312 202.589844 114.945312 201.601562 114.71875 C 200.609375 114.496094 199.613281 114.296875 198.613281 114.125 C 197.613281 113.953125 196.609375 113.808594 195.597656 113.691406 C 194.589844 113.570312 193.582031 113.480469 192.566406 113.414062 C 191.554688 113.347656 190.539062 113.308594 189.523438 113.296875 C 188.507812 113.285156 187.492188 113.296875 186.480469 113.339844 C 185.464844 113.378906 184.453125 113.445312 183.441406 113.539062 C 182.429688 113.636719 181.421875 113.753906 180.417969 113.902344 C 179.410156 114.050781 178.410156 114.222656 177.414062 114.421875 C 176.421875 114.621094 175.429688 114.847656 174.445312 115.097656 C 173.464844 115.351562 172.488281 115.628906 171.515625 115.929688 C 170.546875 116.234375 169.585938 116.5625 168.636719 116.914062 C 167.683594 117.269531 166.742188 117.648438 165.808594 118.050781 C 164.875 118.453125 163.957031 118.878906 163.046875 119.332031 C 162.136719 119.78125 161.238281 120.257812 160.355469 120.753906 C 159.46875 121.253906 158.597656 121.777344 157.738281 122.320312 C 156.882812 122.863281 156.039062 123.429688 155.210938 124.019531 C 154.382812 124.605469 153.574219 125.21875 152.777344 125.847656 C 151.980469 126.480469 151.203125 127.132812 150.441406 127.804688 C 149.679688 128.476562 148.9375 129.167969 148.210938 129.878906 C 147.484375 130.589844 146.777344 131.320312 146.089844 132.066406 C 145.40625 132.816406 144.738281 133.582031 144.089844 134.363281 C 143.445312 135.148438 142.816406 135.949219 142.214844 136.761719 C 141.609375 137.578125 141.023438 138.410156 140.464844 139.257812 C 139.902344 140.105469 139.363281 140.964844 138.847656 141.839844 C 138.332031 142.714844 137.839844 143.605469 137.371094 144.503906 C 136.898438 145.40625 136.453125 146.320312 136.03125 147.242188 C 135.613281 148.167969 135.214844 149.101562 134.84375 150.046875 C 134.46875 150.992188 134.121094 151.949219 133.800781 152.910156 C 133.476562 153.875 133.179688 154.847656 132.910156 155.824219 C 132.636719 156.804688 132.390625 157.789062 132.171875 158.78125 C 131.953125 159.773438 131.757812 160.769531 131.589844 161.773438 C 131.421875 162.777344 131.28125 163.78125 131.167969 164.792969 C 131.054688 165.800781 130.964844 166.8125 130.902344 167.828125 C 130.84375 168.839844 130.808594 169.855469 130.796875 170.871094 C 130.789062 171.890625 130.808594 172.90625 130.855469 173.917969 C 130.898438 174.933594 130.96875 175.949219 131.070312 176.960938 C 131.167969 177.972656 131.292969 178.980469 131.441406 179.984375 C 131.59375 180.988281 131.769531 181.988281 131.972656 182.984375 C 132.179688 183.980469 132.40625 184.96875 132.664062 185.953125 C 132.917969 186.9375 133.199219 187.914062 133.507812 188.882812 C 133.8125 189.851562 134.144531 190.808594 134.5 191.761719 C 134.859375 192.710938 135.242188 193.652344 135.648438 194.585938 C 136.054688 195.515625 136.484375 196.4375 136.9375 197.34375 C 137.394531 198.253906 137.871094 199.148438 138.375 200.03125 C 138.875 200.914062 139.398438 201.785156 139.945312 202.640625 C 140.496094 203.496094 141.0625 204.339844 141.65625 205.164062 C 142.246094 205.988281 142.859375 206.800781 143.492188 207.59375 C 144.128906 208.386719 144.78125 209.164062 145.457031 209.921875 C 146.132812 210.683594 146.824219 211.421875 147.539062 212.148438 C 148.253906 212.871094 148.984375 213.574219 149.734375 214.257812 C 150.484375 214.941406 151.253906 215.605469 152.039062 216.25 C 152.824219 216.894531 153.625 217.515625 154.445312 218.121094 C 155.261719 218.722656 156.097656 219.300781 156.945312 219.859375 C 157.792969 220.417969 158.65625 220.953125 159.53125 221.464844 C 160.410156 221.980469 161.296875 222.46875 162.199219 222.933594 C 163.101562 223.402344 164.015625 223.84375 164.941406 224.261719 C 165.867188 224.679688 166.804688 225.070312 167.75 225.441406 C 168.695312 225.808594 169.652344 226.152344 170.617188 226.472656 C 171.578125 226.792969 172.550781 227.085938 173.53125 227.351562 C 174.511719 227.621094 175.496094 227.859375 176.488281 228.078125 C 177.480469 228.292969 178.476562 228.484375 179.480469 228.644531 C 180.484375 228.808594 181.488281 228.945312 182.5 229.058594 C 183.507812 229.167969 184.519531 229.25 185.53125 229.308594 C 186.546875 229.367188 187.5625 229.398438 188.578125 229.402344 C 189.589844 229.40625 190.605469 229.382812 191.621094 229.335938 C 192.632812 229.285156 193.648438 229.210938 194.65625 229.105469 C 195.667969 229.003906 196.675781 228.875 197.675781 228.71875 C 198.679688 228.566406 199.679688 228.382812 200.671875 228.175781 C 201.667969 227.96875 202.65625 227.734375 203.636719 227.476562 C 204.617188 227.214844 205.59375 226.929688 206.558594 226.617188 C 207.527344 226.308594 208.484375 225.972656 209.433594 225.609375 C 210.382812 225.25 211.320312 224.863281 212.25 224.453125 C 213.179688 224.042969 214.097656 223.609375 215 223.148438 C 215.90625 222.691406 216.800781 222.207031 217.683594 221.703125 C 218.5625 221.195312 219.429688 220.667969 220.28125 220.117188 C 221.136719 219.566406 221.972656 218.992188 222.796875 218.398438 C 223.621094 217.800781 224.425781 217.1875 225.214844 216.546875 C 226.007812 215.910156 226.78125 215.253906 227.535156 214.574219 C 228.292969 213.894531 229.03125 213.199219 229.75 212.480469 C 230.46875 211.761719 231.167969 211.027344 231.851562 210.273438 C 232.53125 209.519531 233.191406 208.75 233.832031 207.960938 C 234.472656 207.171875 235.089844 206.367188 235.691406 205.546875 C 236.289062 204.722656 236.863281 203.886719 237.417969 203.035156 C 237.972656 202.183594 238.503906 201.320312 239.011719 200.441406 C 239.523438 199.5625 240.007812 198.667969 240.46875 197.765625 C 240.933594 196.859375 241.371094 195.941406 241.785156 195.015625 C 242.199219 194.085938 242.585938 193.148438 242.953125 192.199219 C 243.316406 191.25 243.65625 190.292969 243.972656 189.328125 C 244.285156 188.363281 244.574219 187.386719 244.839844 186.40625 C 245.101562 185.425781 245.339844 184.4375 245.550781 183.445312 C 245.761719 182.449219 245.949219 181.453125 246.105469 180.449219 C 246.265625 179.445312 246.398438 178.4375 246.503906 177.425781 C 246.613281 176.414062 246.691406 175.402344 246.746094 174.386719 C 246.796875 173.371094 246.824219 172.359375 246.824219 171.339844 C 246.820312 168.292969 246.578125 165.261719 246.101562 162.25 Z M 246.101562 162.25 " fill-opacity="1" fill-rule="nonzero"/><path fill="#3252a4" d="M 175.933594 202.988281 L 170.273438 214.105469 L 179.894531 205.027344 C 178.453125 204.40625 177.152344 203.726562 175.933594 202.988281 Z M 175.933594 202.988281 " fill-opacity="1" fill-rule="nonzero"/><path fill="#3252a4" d="M 159.335938 186.777344 C 158.8125 185.914062 158.320312 185.039062 157.851562 184.148438 C 157.386719 183.253906 156.949219 182.347656 156.542969 181.429688 C 156.132812 180.507812 155.753906 179.574219 155.40625 178.628906 C 155.058594 177.683594 154.742188 176.730469 154.457031 175.765625 C 154.171875 174.800781 153.917969 173.828125 153.691406 172.84375 C 153.46875 171.863281 153.277344 170.875 153.117188 169.882812 C 152.957031 168.886719 152.832031 167.886719 152.734375 166.886719 C 152.640625 165.882812 152.578125 164.878906 152.546875 163.875 C 152.515625 162.867188 152.519531 161.859375 152.554688 160.855469 C 152.585938 159.847656 152.65625 158.84375 152.753906 157.84375 C 152.851562 156.839844 152.984375 155.84375 153.148438 154.847656 C 153.3125 153.855469 153.507812 152.867188 153.734375 151.886719 C 153.960938 150.90625 154.21875 149.933594 154.507812 148.96875 C 154.800781 148.003906 155.121094 147.050781 155.472656 146.109375 C 155.824219 145.164062 156.203125 144.234375 156.617188 143.316406 C 157.027344 142.394531 157.46875 141.492188 157.9375 140.601562 C 158.40625 139.710938 158.90625 138.835938 159.433594 137.980469 C 159.957031 137.121094 160.511719 136.28125 161.09375 135.457031 C 161.671875 134.636719 162.277344 133.832031 162.910156 133.050781 C 163.542969 132.265625 164.199219 131.503906 164.882812 130.761719 C 165.5625 130.023438 166.265625 129.304688 166.996094 128.609375 C 167.722656 127.914062 168.472656 127.242188 169.242188 126.59375 C 170.015625 125.949219 170.804688 125.328125 171.617188 124.730469 C 172.425781 124.136719 173.257812 123.566406 174.105469 123.023438 C 174.953125 122.480469 175.816406 121.96875 176.699219 121.480469 C 177.578125 120.996094 178.472656 120.539062 179.382812 120.109375 C 180.296875 119.679688 181.21875 119.28125 182.15625 118.914062 C 183.089844 118.542969 184.039062 118.203125 184.996094 117.898438 C 185.953125 117.589844 186.921875 117.3125 187.894531 117.066406 C 188.871094 116.820312 189.855469 116.609375 190.84375 116.425781 C 191.835938 116.246094 192.828125 116.09375 193.828125 115.976562 C 194.828125 115.859375 195.828125 115.773438 196.832031 115.722656 C 195.984375 115.722656 195.136719 115.652344 194.273438 115.652344 C 192.011719 115.648438 189.761719 115.804688 187.523438 116.117188 C 185.28125 116.425781 183.074219 116.890625 180.898438 117.511719 C 178.726562 118.128906 176.605469 118.894531 174.535156 119.808594 C 172.46875 120.722656 170.472656 121.777344 168.550781 122.96875 C 166.628906 124.160156 164.796875 125.480469 163.058594 126.925781 C 161.320312 128.371094 159.691406 129.929688 158.167969 131.605469 C 156.648438 133.277344 155.25 135.050781 153.972656 136.917969 C 152.695312 138.785156 151.558594 140.734375 150.550781 142.761719 C 149.546875 144.785156 148.6875 146.875 147.972656 149.019531 C 147.257812 151.167969 146.695312 153.351562 146.285156 155.578125 C 145.875 157.800781 145.617188 160.042969 145.519531 162.304688 C 145.417969 164.566406 145.476562 166.820312 145.691406 169.074219 C 145.90625 171.328125 146.277344 173.554688 146.800781 175.753906 C 147.324219 177.957031 147.996094 180.109375 148.820312 182.21875 C 149.644531 184.324219 150.609375 186.363281 151.71875 188.335938 C 152.824219 190.308594 154.0625 192.195312 155.429688 193.996094 Z M 159.335938 186.777344 " fill-opacity="1" fill-rule="nonzero"/><g clip-path="url(#id1)"><path fill="#5a78bb" d="M 248.140625 244.832031 L 187.988281 133.972656 L 127.824219 244.832031 L 175 244.832031 L 160.425781 233.164062 L 187.988281 179.328125 L 215.554688 233.164062 L 200.980469 244.832031 Z M 248.140625 244.832031 " fill-opacity="1" fill-rule="nonzero"/></g><path fill="#3252a4" d="M 222.628906 218.523438 C 219.09375 221.070312 215.320312 223.195312 211.308594 224.894531 L 212.722656 227.726562 C 216.382812 225.042969 219.683594 221.976562 222.628906 218.523438 Z M 222.628906 218.523438 " fill-opacity="1" fill-rule="nonzero"/><path fill="#3252a4" d="M 237.710938 164.148438 C 237.710938 163.320312 237.6875 162.492188 237.636719 161.667969 C 237.585938 160.839844 237.511719 160.015625 237.410156 159.195312 C 237.308594 158.371094 237.1875 157.554688 237.039062 156.742188 C 236.886719 155.925781 236.714844 155.117188 236.519531 154.3125 C 236.320312 153.507812 236.097656 152.710938 235.855469 151.921875 C 235.609375 151.128906 235.339844 150.347656 235.046875 149.574219 C 234.757812 148.796875 234.441406 148.035156 234.105469 147.277344 C 233.765625 146.523438 233.40625 145.777344 233.023438 145.042969 C 232.640625 144.308594 232.238281 143.585938 231.8125 142.878906 C 231.386719 142.167969 230.9375 141.472656 230.472656 140.789062 C 230.003906 140.105469 229.515625 139.4375 229.007812 138.78125 C 228.5 138.128906 227.972656 137.492188 227.429688 136.871094 C 226.882812 136.246094 226.320312 135.640625 225.738281 135.054688 C 225.15625 134.464844 224.554688 133.894531 223.941406 133.34375 C 223.324219 132.789062 222.691406 132.257812 222.042969 131.742188 C 221.394531 131.226562 220.730469 130.734375 220.054688 130.257812 C 219.375 129.785156 218.683594 129.328125 217.980469 128.898438 C 217.273438 128.464844 216.558594 128.050781 215.828125 127.660156 C 215.097656 127.273438 214.359375 126.902344 213.605469 126.558594 C 212.855469 126.210938 212.09375 125.890625 211.320312 125.589844 C 210.550781 125.289062 209.773438 125.011719 208.984375 124.761719 C 208.195312 124.507812 207.402344 124.277344 206.601562 124.070312 C 205.800781 123.867188 204.992188 123.683594 204.179688 123.527344 C 203.367188 123.371094 202.550781 123.238281 201.730469 123.128906 C 200.910156 123.023438 200.089844 122.9375 199.261719 122.878906 C 198.4375 122.820312 197.613281 122.785156 196.785156 122.777344 C 195.957031 122.769531 195.128906 122.785156 194.304688 122.824219 C 193.476562 122.863281 192.652344 122.929688 191.832031 123.019531 C 191.007812 123.109375 190.191406 123.222656 189.375 123.363281 C 188.558594 123.503906 187.75 123.664062 186.941406 123.851562 C 186.136719 124.039062 185.335938 124.253906 184.542969 124.488281 C 183.75 124.722656 182.964844 124.984375 182.1875 125.265625 C 181.621094 125.535156 181.042969 125.804688 180.492188 126.085938 C 182.625 125.648438 184.785156 125.371094 186.960938 125.253906 C 189.140625 125.140625 191.3125 125.1875 193.484375 125.398438 C 195.65625 125.609375 197.796875 125.980469 199.910156 126.515625 C 202.027344 127.046875 204.089844 127.734375 206.101562 128.578125 C 208.113281 129.421875 210.050781 130.410156 211.914062 131.542969 C 213.777344 132.675781 215.546875 133.945312 217.21875 135.34375 C 218.890625 136.742188 220.453125 138.257812 221.898438 139.890625 C 223.34375 141.527344 224.660156 143.257812 225.847656 145.089844 C 227.03125 146.921875 228.074219 148.828125 228.976562 150.816406 C 229.875 152.804688 230.621094 154.847656 231.214844 156.949219 C 231.808594 159.050781 232.242188 161.183594 232.515625 163.347656 C 232.789062 165.511719 232.898438 167.683594 232.847656 169.867188 C 232.796875 172.046875 232.582031 174.214844 232.203125 176.363281 C 231.828125 178.511719 231.292969 180.621094 230.597656 182.691406 C 229.90625 184.761719 229.0625 186.765625 228.066406 188.707031 C 227.074219 190.652344 225.9375 192.507812 224.667969 194.28125 C 226.726562 192.351562 228.570312 190.230469 230.195312 187.921875 C 231.820312 185.613281 233.195312 183.160156 234.316406 180.570312 C 235.4375 177.976562 236.285156 175.300781 236.859375 172.535156 C 237.429688 169.769531 237.714844 166.972656 237.710938 164.148438 Z M 237.710938 164.148438 " fill-opacity="1" fill-rule="nonzero"/><g clip-path="url(#id2)"><path fill="#3252a4" d="M 160.425781 233.164062 L 157.976562 238.035156 L 175 244.832031 Z M 160.425781 233.164062 " fill-opacity="1" fill-rule="nonzero"/></g><g clip-path="url(#id3)"><path fill="#3252a4" d="M 215.566406 233.164062 L 218 238.035156 L 200.992188 244.832031 Z M 215.566406 233.164062 " fill-opacity="1" fill-rule="nonzero"/></g><path fill="#3252a4" d="M 170.175781 214.105469 L 187.988281 171.199219 L 203.242188 209.132812 L 187.988281 179.328125 Z M 170.175781 214.105469 " fill-opacity="1" fill-rule="nonzero"/><g fill="#5a78bb" fill-opacity="1"><g transform="translate(117.569218, 289.978451)"><g><path d="M 16.984375 -29.25 L 28.78125 0 L 21.625 0 L 19.46875 -5.84375 L 8.328125 -5.84375 L 6.171875 0 L -1 0 L 10.8125 -29.25 Z M 17.1875 -11.703125 L 13.9375 -20.203125 L 13.859375 -20.203125 L 10.59375 -11.703125 Z M 17.1875 -11.703125 "/></g></g></g><g fill="#5a78bb" fill-opacity="1"><g transform="translate(145.358669, 289.978451)"><g><path d="M 2.125 -29.25 L 10.59375 -29.25 C 14.664062 -29.25 18.140625 -27.859375 21.015625 -25.078125 C 23.898438 -22.304688 25.34375 -18.828125 25.34375 -14.640625 C 25.34375 -10.429688 23.90625 -6.9375 21.03125 -4.15625 C 18.164062 -1.382812 14.6875 0 10.59375 0 L 2.125 0 Z M 8.796875 -5.953125 L 9.828125 -5.953125 C 12.253906 -5.953125 14.238281 -6.773438 15.78125 -8.421875 C 17.332031 -10.066406 18.125 -12.128906 18.15625 -14.609375 C 18.15625 -17.085938 17.378906 -19.15625 15.828125 -20.8125 C 14.273438 -22.46875 12.273438 -23.296875 9.828125 -23.296875 L 8.796875 -23.296875 Z M 8.796875 -5.953125 "/></g></g></g><g fill="#5a78bb" fill-opacity="1"><g transform="translate(171.517625, 289.978451)"><g><path d="M 8.796875 -29.25 L 8.796875 0 L 2.125 0 L 2.125 -29.25 Z M 8.796875 -29.25 "/></g></g></g><g fill="#5a78bb" fill-opacity="1"><g transform="translate(182.434913, 289.978451)"><g><path d="M 0.28125 -23.40625 L 0.28125 -29.25 L 20.84375 -29.25 L 20.84375 -23.40625 L 13.890625 -23.40625 L 13.890625 0 L 7.234375 0 L 7.234375 -23.40625 Z M 0.28125 -23.40625 "/></g></g></g><g fill="#5a78bb" fill-opacity="1"><g transform="translate(203.560564, 289.978451)"><g><path d="M -1.0625 -29.25 L 6.953125 -29.25 L 13.046875 -19.890625 L 19.140625 -29.25 L 27.15625 -29.25 L 16.375 -13.125 L 16.375 0 L 9.71875 0 L 9.71875 -13.125 Z M -1.0625 -29.25 "/></g></g></g><g fill="#5a78bb" fill-opacity="1"><g transform="translate(229.648629, 289.978451)"><g><path d="M 16.984375 -29.25 L 28.78125 0 L 21.625 0 L 19.46875 -5.84375 L 8.328125 -5.84375 L 6.171875 0 L -1 0 L 10.8125 -29.25 Z M 17.1875 -11.703125 L 13.9375 -20.203125 L 13.859375 -20.203125 L 10.59375 -11.703125 Z M 17.1875 -11.703125 "/></g></g></g></svg>